<?xml version="1.0" encoding="UTF-8"?>
<!-- Created with Inkscape (http://www.inkscape.org/) -->
<svg width="96" height="96" version="1.1" viewBox="0 0 56.115 49.647" xmlns="http://www.w3.org/2000/svg">
 <g transform="translate(-4.5512 -.81121)">
  <rect x="32.005" y="61.657" width="141.67" height="137.43" fill="none"/>
  <g stroke="#000">
   <g fill="none" stroke-linejoin="round" stroke-width="1.022">
    <path d="m25.181 21.743 21.573-12.191v37.043l-21.573-3.3721z" points="46.753999,9.552184 46.753999,46.595483 25.181153,43.223395 25.181153,21.743065 "/>
    <path d="m16.673 19.412v24.923l8.5077-1.1109v-21.48z" points="16.673414,44.334312 25.181153,43.223395 25.181153,21.743065 16.673414,19.411741 "/>
    <path d="m16.673 44.334 20.226 5.4829 9.8541-3.2218-21.573-3.3721z" points="36.899892,49.817245 46.753999,46.595483 25.181153,43.223395 16.673414,44.334312 "/>
    <path d="m16.673 19.412 20.226-18.22 9.8541 8.3601-21.573 12.191z" points="36.899892,1.1920884 46.753999,9.552184 25.181153,21.743065 16.673414,19.411741 "/>
    <path d="m36.9 1.1921v48.625l9.8541-3.2218v-37.043z" points="36.899892,49.817245 46.753999,46.595483 46.753999,9.552184 36.899892,1.1920884 "/>
    <path d="m16.673 19.412 20.226-18.22v48.625l-20.226-5.4829z" points="36.899892,1.1920884 36.899892,49.817245 16.673414,44.334312 16.673414,19.411741 "/>
   </g>
   <path d="m44.091 39.721a2.7395 3.8845 0 0 1-2.7395 3.8845 2.7395 3.8845 0 0 1-2.7395-3.8845 2.7395 3.8845 0 0 1 2.7395-3.8845 2.7395 3.8845 0 0 1 2.7395 3.8845z" stroke-width=".15704"/>
   <path d="m38.482 17.554h6.6125v1.6889h-6.6125z" stroke-width=".033546"/>
   <path d="m38.583 20.806h6.6125v1.6889h-6.6125z" stroke-width=".033546"/>
  </g>
  <text transform="scale(.26458)" fill="#30c646" stroke="#000000" style="shape-inside:url(#rect34092);white-space:pre" xml:space="preserve"/>
 </g>
</svg>
